<?xml version="1.0" standalone="no"?>
<!DOCTYPE svg PUBLIC "-//W3C//DTD SVG 20010904//EN"
 "http://www.w3.org/TR/2001/REC-SVG-20010904/DTD/svg10.dtd">
<svg version="1.0" xmlns="http://www.w3.org/2000/svg"
 width="1566.000000pt" height="1566.000000pt" viewBox="0 0 1566.000000 1566.000000"
 preserveAspectRatio="xMidYMid meet">
<metadata>
Created by potrace 1.14, written by Peter Selinger 2001-2017
</metadata>
<g transform="translate(0.000000,1566.000000) scale(0.100000,-0.100000)"
fill="#000000" stroke="none">
<path d="M3799 14769 c-112 -113 -163 -229 -162 -375 0 -86 26 -191 65 -269
19 -37 19 -39 2 -24 -33 27 -107 66 -198 104 -274 113 -534 94 -754 -57 -48
-33 -172 -154 -172 -168 0 -5 12 -4 28 2 38 16 206 15 272 -1 123 -31 256
-109 354 -209 l48 -50 -47 -21 c-37 -16 -55 -19 -85 -12 -95 21 -214 5 -286
-40 -102 -63 -177 -222 -185 -394 -2 -34 -12 -66 -32 -100 -52 -88 -125 -261
-149 -355 -5 -19 -13 -51 -18 -70 -5 -19 -16 -73 -24 -120 -38 -219 -43 -299
-46 -690 -1 -146 -6 -289 -12 -319 -26 -146 -102 -213 -257 -227 l-70 -7 29
-42 c63 -92 150 -139 242 -133 l56 4 -38 -70 c-46 -84 -85 -185 -107 -275 -15
-65 -28 -275 -18 -292 3 -4 31 22 62 59 32 37 65 73 75 80 9 7 23 18 30 25 7
8 26 22 43 33 29 19 29 19 21 -1 -23 -55 -57 -171 -63 -218 -13 -86 -7 -237
11 -307 23 -84 74 -191 127 -263 23 -31 43 -56 45 -54 1 1 -9 44 -22 95 -13
52 -26 137 -29 190 l-5 97 25 -84 c48 -159 144 -307 239 -372 32 -21 40 -36
66 -122 39 -124 106 -282 177 -415 l54 -102 -323 -159 c-605 -297 -679 -329
-1138 -501 -382 -144 -537 -224 -642 -333 -26 -27 -57 -68 -68 -91 -19 -40
-42 -135 -35 -146 2 -3 6 -34 10 -69 27 -245 299 -717 576 -1001 73 -74 164
-150 181 -150 24 0 -2 -24 -94 -86 -57 -38 -107 -71 -111 -73 -5 -1 -32 13
-61 32 -114 76 -197 106 -262 97 -58 -8 -88 -31 -113 -85 -32 -68 -40 -126
-38 -258 2 -66 0 -113 -3 -105 -3 8 -40 65 -84 127 -146 210 -213 281 -263
281 -85 0 -165 -113 -188 -265 -7 -46 -7 -225 -1 -273 15 -100 18 -121 28
-162 5 -25 11 -54 14 -65 12 -59 78 -273 90 -292 8 -13 12 -23 9 -23 -9 0 72
-147 103 -189 119 -159 299 -220 477 -161 86 28 222 95 386 191 68 39 138 79
154 87 17 9 33 20 37 26 14 20 26 -8 33 -74 31 -306 186 -682 379 -914 257
-312 568 -635 763 -793 62 -50 158 -122 215 -159 125 -82 188 -146 234 -239
49 -99 55 -166 21 -234 l-26 -51 44 4 c48 5 94 25 114 50 19 23 28 20 29 -11
1 -26 6 -62 16 -108 3 -11 32 -101 66 -200 90 -263 140 -457 140 -546 0 -75
-79 -129 -184 -125 -28 2 -103 19 -166 38 -105 33 -196 57 -275 72 -16 4 -41
9 -55 12 -41 10 -369 14 -393 5 -12 -5 -54 -11 -92 -15 -139 -13 -226 -39
-329 -99 -171 -99 -231 -227 -229 -492 0 -98 13 -135 63 -190 15 -16 36 -55
45 -85 11 -32 32 -69 52 -89 31 -31 37 -33 83 -29 42 4 52 2 71 -18 43 -45
137 -48 228 -7 79 36 143 78 272 180 186 147 237 182 286 202 56 22 203 55
463 106 102 20 190 38 195 39 28 7 111 20 118 18 7 -2 81 9 157 23 68 12 88
15 164 21 104 9 353 9 431 0 53 -6 93 -13 200 -31 17 -3 64 -15 105 -26 41
-11 84 -23 95 -25 11 -2 31 -6 45 -9 95 -20 177 -14 209 16 66 62 -47 252
-205 344 -37 22 -71 40 -74 41 -3 0 -18 6 -35 13 -46 20 -184 58 -235 66 -25
4 -57 8 -71 11 -15 2 -85 6 -157 8 -171 6 -244 21 -295 60 -117 90 -191 293
-233 638 l-6 48 58 -6 c67 -7 60 -7 97 -5 l29 1 -25 29 c-32 38 -64 106 -73
154 l-7 39 31 -16 c129 -67 419 -135 647 -152 244 -18 565 1 770 46 22 5 54
11 70 14 42 8 62 13 128 30 32 9 62 14 66 11 16 -9 33 -95 27 -130 l-7 -36 39
20 c37 19 132 113 132 131 0 5 5 21 10 35 11 30 -2 44 203 -225 31 -41 61 -80
66 -86 40 -50 152 -208 172 -244 52 -92 72 -157 66 -214 -8 -81 -51 -143 -147
-211 -87 -62 -130 -99 -130 -112 0 -7 -6 -16 -14 -20 -25 -14 -85 -130 -100
-190 -22 -94 -3 -181 39 -184 8 -1 21 -2 28 -3 23 -3 82 16 147 49 36 18 135
68 220 111 190 97 217 108 333 138 192 50 324 51 462 4 123 -42 209 -122 328
-303 29 -44 73 -95 97 -113 39 -30 50 -33 88 -29 46 5 96 43 113 85 12 30 22
28 52 -12 55 -71 150 -87 243 -40 42 21 57 25 66 16 18 -18 98 -14 143 7 86
39 134 112 142 215 7 84 -7 152 -47 243 -85 189 -217 288 -379 285 -53 -1 -53
-1 -123 68 -75 76 -166 127 -288 161 -119 33 -284 15 -395 -43 -23 -12 -35
-13 -78 -1 -57 15 -140 9 -194 -13 -45 -19 -77 -17 -126 7 -111 57 -252 263
-317 464 -7 22 -30 78 -51 124 -22 46 -39 85 -39 86 0 1 24 5 53 8 28 4 76 14
105 22 l54 16 -69 45 c-37 25 -90 66 -116 92 -48 47 -124 149 -116 156 2 2 36
30 74 63 39 33 104 94 145 135 61 61 79 74 95 67 11 -4 17 -8 12 -8 -8 -1 138
-152 147 -152 3 0 20 -14 39 -32 59 -55 217 -167 236 -167 6 0 11 -5 11 -11 0
-5 5 -7 10 -4 6 3 10 2 10 -2 0 -18 145 -70 187 -67 12 1 34 9 48 18 24 16 27
26 28 88 0 35 7 35 44 1 17 -16 54 -48 84 -73 29 -25 63 -55 75 -68 12 -12 26
-22 32 -22 5 0 20 -11 33 -25 13 -13 30 -25 37 -25 6 0 12 -4 12 -8 0 -5 21
-23 48 -42 26 -18 68 -48 94 -67 26 -18 52 -33 58 -33 5 0 10 -5 10 -10 0 -6
8 -13 18 -17 9 -3 29 -15 45 -25 15 -11 27 -16 27 -12 0 4 8 -3 19 -14 10 -12
26 -22 35 -22 9 0 16 -5 16 -11 0 -5 5 -7 10 -4 6 3 10 1 10 -4 0 -6 7 -11 15
-11 8 0 15 -5 15 -11 0 -5 5 -7 10 -4 6 3 10 2 10 -3 0 -8 25 -21 52 -26 4 0
13 -7 19 -13 7 -7 21 -13 31 -13 10 0 18 -5 18 -11 0 -5 4 -7 10 -4 5 3 10 1
10 -4 0 -6 3 -10 8 -9 4 1 25 -7 47 -17 22 -10 43 -17 48 -17 4 1 7 -3 7 -9 0
-5 3 -8 8 -6 4 3 18 0 32 -6 14 -5 34 -12 45 -14 10 -2 22 -9 27 -15 4 -7 10
-9 14 -5 4 4 13 2 21 -4 7 -6 13 -9 13 -5 0 4 14 0 30 -9 17 -9 30 -13 30 -11
0 3 15 0 33 -6 17 -5 39 -11 47 -12 8 -2 31 -6 50 -10 19 -3 46 -8 60 -10 14
-3 25 -5 25 -6 0 -10 255 -15 340 -7 62 6 168 31 215 50 19 8 44 13 55 11 11
-2 36 -6 55 -9 19 -2 46 -7 60 -10 86 -17 402 -26 491 -13 56 8 125 26 148 38
9 5 33 17 54 26 59 26 123 96 147 161 44 117 25 250 -60 428 -10 21 -18 40
-16 42 1 1 20 5 42 9 85 13 231 56 278 82 140 76 108 181 -98 319 -142 96
-462 243 -746 345 -30 11 -64 24 -75 29 -11 5 -47 18 -80 29 -33 10 -132 43
-220 73 l-160 54 55 7 c276 36 801 310 887 464 20 35 21 40 7 60 -8 12 -21 22
-28 22 -7 0 -25 10 -40 21 -15 12 -42 22 -61 23 -18 0 -37 4 -41 8 -3 4 -14 4
-23 0 -9 -5 -42 -8 -73 -7 -32 1 -58 -2 -58 -5 0 -4 -15 -6 -32 -5 -18 1 -42
-5 -52 -14 -18 -15 -19 -15 -13 2 6 15 4 16 -13 7 -11 -6 -26 -8 -32 -4 -7 5
-8 3 -3 -6 6 -10 4 -12 -8 -7 -10 4 -22 -2 -33 -16 l-16 -22 5 22 c4 20 3 21
-14 12 -10 -5 -19 -12 -19 -15 0 -3 4 -3 9 0 5 3 11 0 14 -7 4 -10 -4 -14 -24
-14 -19 0 -25 3 -17 8 7 4 9 11 5 15 -3 4 -16 -4 -27 -17 l-21 -24 6 25 c4 15
3 20 -2 13 -5 -7 -19 -11 -31 -8 -13 2 -20 0 -17 -5 3 -5 1 -11 -5 -15 -6 -4
-8 -11 -5 -16 4 -5 1 -9 -6 -9 -6 0 -9 8 -6 19 3 13 1 18 -9 14 -10 -4 -10
-10 -2 -29 9 -18 14 -21 24 -13 8 6 11 16 7 21 -3 6 0 8 8 6 8 -3 13 -11 11
-17 -1 -7 2 -10 8 -6 8 5 7 11 -1 21 -6 8 -9 17 -6 20 3 3 12 -3 19 -15 7 -12
20 -21 28 -21 13 0 13 1 0 10 -8 5 -13 10 -10 11 39 6 59 6 56 0 -3 -4 1 -8 9
-8 8 0 15 5 15 10 0 6 3 7 7 4 3 -4 12 -2 20 4 10 9 13 8 13 0 0 -7 5 -9 11
-5 8 4 7 9 -2 15 -7 4 -10 11 -6 16 5 4 12 1 17 -7 5 -8 12 -11 17 -7 4 5 2
12 -6 16 -10 6 -9 10 4 14 9 4 14 3 11 -1 -2 -4 -1 -14 5 -22 7 -12 9 -12 9
-1 0 10 3 11 13 2 8 -6 17 -8 20 -4 4 3 7 1 7 -6 0 -7 -8 -11 -17 -9 -10 1
-25 -2 -33 -7 -8 -6 -28 -11 -45 -13 -57 -5 -65 -6 -65 -12 0 -6 -23 -9 -87
-12 -18 -1 -30 -5 -26 -11 3 -6 2 -7 -3 -4 -6 3 -16 2 -24 -3 -8 -5 -22 -5
-32 1 -10 5 -18 6 -18 1 0 -5 -7 -9 -15 -9 -8 0 -15 5 -15 11 0 7 -3 7 -8 -1
-4 -6 -41 -14 -82 -18 -41 -3 -82 -8 -92 -11 -9 -3 -19 0 -22 5 -4 5 -16 7
-29 3 -30 -8 -296 -7 -382 2 -126 13 -158 17 -280 37 -66 11 -136 25 -155 31
-19 7 -42 11 -49 9 -8 -1 -20 3 -26 11 -19 24 -53 39 -61 26 -5 -7 -3 -8 6 -3
9 6 11 4 5 -5 -6 -9 -4 -11 5 -5 9 5 11 4 6 -4 -6 -9 -11 -9 -22 0 -8 6 -14 8
-14 4 0 -4 -7 -2 -15 5 -8 7 -15 9 -15 5 0 -4 -7 -1 -17 6 -9 8 -18 13 -20 12
-9 -7 -33 -2 -33 8 0 5 4 7 10 4 18 -11 50 -14 50 -5 0 8 -8 10 -57 11 -13 0
-25 5 -28 10 -4 5 -11 7 -16 3 -5 -3 -18 0 -27 8 -16 12 -16 11 -2 -7 15 -19
15 -19 -14 -1 -16 10 -25 12 -21 5 6 -9 3 -11 -9 -6 -10 4 -22 7 -27 7 -6 0
-8 4 -5 8 2 4 -5 8 -17 9 -47 2 -231 64 -352 118 -16 7 -55 24 -85 38 -30 13
-73 36 -95 51 -47 33 -159 85 -195 93 -23 4 -30 17 -63 120 -21 63 -58 158
-84 212 -45 94 -160 288 -191 324 -29 33 1 17 47 -26 88 -81 224 -187 240
-187 5 0 11 -4 13 -9 5 -14 178 -121 288 -178 156 -82 350 -155 535 -203 70
-18 109 -25 235 -46 126 -20 442 -29 549 -15 l44 6 -49 34 c-142 100 -263 195
-258 202 3 5 -2 9 -10 9 -9 0 -16 5 -16 11 0 5 -4 8 -9 4 -5 -3 -18 6 -29 20
-11 13 -22 22 -25 19 -2 -3 -14 6 -25 20 -10 14 -22 22 -26 18 -4 -3 -4 2 0
13 6 14 4 17 -9 12 -16 -6 -42 15 -31 26 6 6 36 -2 44 -13 9 -11 85 -44 95
-41 6 1 6 -1 2 -5 -10 -10 -38 -14 -32 -5 2 4 -3 8 -11 8 -10 0 -11 -4 -4 -11
14 -14 42 -17 57 -4 9 7 13 7 13 -1 0 -7 4 -10 9 -6 12 7 33 -30 37 -62 1 -16
-2 -20 -14 -16 -14 4 -15 3 -2 -5 8 -6 17 -9 21 -6 4 2 9 1 12 -3 2 -5 2 -2 0
5 -1 8 3 12 9 9 7 -2 12 -9 11 -14 -3 -14 39 -14 56 0 12 10 14 9 9 -4 -5 -12
0 -15 20 -14 15 1 35 -2 46 -8 13 -6 16 -6 12 2 -8 12 16 15 28 4 12 -12 80
-11 88 1 5 7 8 7 8 -2 0 -10 5 -10 21 -1 12 6 19 7 15 1 -3 -6 7 -10 27 -10
17 0 59 -5 92 -11 107 -19 147 -22 335 -26 187 -3 310 7 488 40 86 16 273 63
281 71 2 2 -7 8 -21 13 -13 5 -55 23 -93 41 -39 18 -85 39 -103 47 l-34 14 57
34 c78 47 144 97 184 139 37 39 74 49 65 19 -3 -10 0 -8 8 5 11 18 16 20 27
10 11 -10 12 -10 7 0 -5 8 2 12 21 13 25 2 60 4 133 12 14 1 29 7 33 12 5 6 7
0 4 -13 -3 -12 -1 -20 4 -16 5 3 9 12 9 20 0 8 7 14 16 14 14 0 14 -3 4 -15
-8 -9 -8 -15 -2 -15 6 0 13 9 17 19 6 19 30 21 55 6 6 -4 7 1 3 12 -3 10 -3
15 1 11 5 -4 19 -3 32 2 17 7 28 5 40 -7 16 -16 16 -16 10 3 -4 13 -2 21 6 22
35 4 68 11 77 16 5 4 13 1 17 -5 4 -7 3 -9 -4 -5 -6 3 -13 2 -16 -3 -4 -5 2
-8 11 -6 10 1 17 9 15 17 -1 8 4 15 12 15 8 0 13 -5 12 -11 -2 -6 -1 -8 1 -3
3 4 9 5 14 2 5 -4 6 1 3 9 -3 9 -1 16 5 16 6 0 11 -5 11 -11 0 -5 5 -7 10 -4
6 4 8 10 5 15 -3 5 -1 11 5 15 5 3 10 -1 10 -10 0 -9 5 -13 10 -10 6 4 8 10 5
15 -3 4 2 11 11 14 8 3 12 2 9 -4 -3 -6 -1 -10 4 -10 6 0 11 5 11 10 0 6 6 9
13 8 6 -2 11 2 10 8 -1 6 4 11 12 11 8 0 12 -4 9 -9 -4 -5 3 -4 14 3 12 7 19
17 16 21 -3 4 2 5 10 2 9 -3 16 -1 16 6 0 6 5 8 10 5 6 -3 10 -1 10 5 0 6 4 9
9 5 6 -3 14 3 20 12 6 10 11 14 11 10 0 -14 152 96 222 161 64 60 78 91 40 88
-13 -1 -17 6 -15 32 1 26 -3 35 -28 47 -16 9 -29 18 -29 21 0 2 9 0 19 -6 26
-13 34 -13 25 2 -4 7 -3 8 5 4 6 -4 9 -11 6 -16 -9 -14 16 -23 28 -11 6 6 20
11 30 11 16 0 17 2 7 15 -7 9 -10 18 -6 22 3 3 6 2 6 -4 0 -5 7 -10 15 -10 13
0 13 3 -2 19 -9 10 -14 18 -12 19 20 4 37 8 52 14 19 8 23 -5 7 -21 -7 -7 -6
-11 4 -11 8 0 15 3 14 6 -3 30 6 41 39 50 20 6 40 8 45 5 4 -3 8 0 8 6 0 7 7
9 17 6 10 -4 14 -4 10 0 -4 5 12 15 35 24 29 11 45 13 50 6 5 -7 8 -3 8 8 0
16 2 17 16 5 16 -13 71 -22 58 -10 -3 3 -14 6 -25 6 -10 0 -19 5 -18 10 0 6 7
9 15 9 8 -1 14 2 14 6 0 8 41 25 49 21 2 -2 7 3 11 9 4 7 21 13 38 13 17 1 28
5 26 9 -7 11 43 29 60 22 8 -3 17 -1 21 5 4 7 0 8 -11 4 -11 -4 -15 -3 -11 5
4 6 21 13 37 17 17 4 30 10 30 14 0 4 12 13 26 19 20 10 24 10 19 0 -4 -7 3
-2 14 12 11 14 21 21 21 16 0 -5 9 -1 20 9 11 10 20 14 20 10 0 -5 9 1 20 13
18 18 51 28 82 23 4 0 12 9 18 22 9 18 9 20 -2 7 -7 -8 -22 -16 -33 -18 -15
-2 -13 2 10 17 17 12 35 19 42 17 6 -3 17 3 25 12 12 16 11 16 -7 2 -19 -14
-19 -14 -6 3 7 9 23 17 34 17 11 0 18 3 14 6 -3 3 35 40 85 81 103 86 131 113
121 114 -44 4 -73 16 -73 29 0 7 9 9 23 5 21 -7 21 -6 -3 11 -24 18 -63 27
-54 13 2 -4 -5 -7 -16 -6 -10 1 -21 6 -24 12 -2 7 8 10 25 9 16 -1 29 2 29 7
0 14 23 6 43 -16 10 -11 15 -13 11 -5 -14 26 -13 42 2 36 8 -3 14 -1 14 4 0 5
24 21 53 34 28 14 72 36 97 50 25 13 84 42 132 64 86 40 178 96 178 110 0 4
-27 25 -60 47 -33 22 -62 47 -65 55 -5 16 -39 54 -74 82 -37 31 -133 75 -236
107 -55 18 -136 45 -181 62 -45 16 -86 29 -93 29 -6 0 -11 5 -11 11 0 5 -4 8
-9 5 -11 -7 -21 18 -13 30 11 15 33 16 50 2 12 -10 14 -10 8 0 -10 17 65 17
83 0 10 -11 11 -10 6 3 -5 14 2 17 47 17 29 1 69 5 88 9 19 4 46 8 60 8 14 0
27 2 30 5 3 3 48 16 100 29 185 46 357 128 458 220 29 26 79 58 110 71 72 29
250 117 322 159 30 18 67 37 83 44 15 6 27 15 27 19 0 4 7 8 15 8 8 0 15 5 15
10 0 6 9 10 21 10 13 0 18 4 13 12 -5 7 -2 9 8 5 10 -3 24 3 35 15 12 14 13
18 3 13 -13 -8 -13 -7 -1 8 15 18 26 23 16 7 -9 -15 21 -12 34 3 8 10 7 17 -2
26 -9 10 -8 11 7 5 13 -5 17 -4 12 4 -5 8 -2 10 9 6 25 -10 139 105 123 123
-9 11 -7 12 7 6 14 -5 17 -3 12 10 -3 9 -1 19 5 23 7 4 8 3 4 -4 -4 -7 -2 -12
3 -12 6 0 11 5 11 10 0 19 3 25 19 38 9 8 10 11 4 7 -7 -3 5 21 27 54 55 83
97 176 120 268 34 130 36 128 -72 82 -172 -73 -388 -145 -411 -136 -8 3 -20 0
-26 -6 -7 -7 -11 -7 -11 -1 0 7 -29 10 -75 10 -41 -1 -77 4 -80 9 -2 6 -4 3
-3 -5 3 -25 -13 -61 -25 -57 -7 2 -19 1 -28 -4 -10 -5 -16 -4 -16 4 0 7 -2 17
-3 22 -5 20 0 35 12 35 9 0 9 -3 1 -11 -6 -6 -9 -18 -6 -25 8 -21 22 -17 16 5
-3 10 1 22 7 26 9 5 10 2 6 -12 -4 -13 -2 -20 8 -20 7 0 14 10 14 22 0 18 -6
21 -38 21 -21 -1 -42 -5 -47 -10 -5 -5 -2 -6 6 -1 10 6 12 4 7 -4 -6 -9 -11
-9 -24 1 -14 11 -15 10 -9 -5 4 -10 7 -21 7 -23 0 -3 4 -3 9 0 15 9 21 -22 7
-33 -10 -8 -17 -7 -26 4 -7 8 -17 15 -22 15 -7 0 -6 -5 1 -13 8 -10 7 -14 -4
-14 -8 0 -12 4 -9 9 3 4 1 8 -5 8 -5 0 -12 -6 -14 -12 -4 -9 -6 -9 -6 1 -1 11
-5 10 -16 -5 -14 -18 -14 -17 -3 9 8 19 17 26 28 22 14 -4 17 0 15 19 -2 19 1
23 13 19 10 -4 13 -2 8 6 -4 6 -4 11 1 10 20 -5 234 100 326 159 38 24 93 64
123 88 30 24 54 41 54 37 0 -4 7 3 16 15 8 12 20 20 25 17 5 -4 9 0 9 8 0 23
47 60 67 53 16 -5 16 -4 -1 9 -16 12 -17 15 -4 15 8 0 22 8 29 18 13 16 13 16
-5 2 -11 -8 1 11 27 43 26 32 47 62 47 67 0 6 4 10 9 10 5 0 7 -10 4 -22 -3
-13 -3 -20 1 -16 4 3 8 21 9 40 2 21 7 32 15 30 7 -1 12 3 11 10 -3 27 1 38
15 38 8 0 18 4 21 10 3 6 -1 7 -10 4 -12 -5 -11 3 7 38 13 25 27 43 32 40 5
-3 7 2 4 10 -4 8 7 52 23 98 16 46 28 84 26 86 -2 2 -66 -19 -144 -46 -77 -27
-150 -51 -161 -53 -12 -2 -25 -6 -28 -10 -10 -10 -26 -9 -20 1 3 5 -1 9 -8 9
-8 0 -12 -7 -8 -15 3 -10 1 -13 -6 -8 -6 3 -13 2 -17 -4 -3 -5 -19 -10 -34
-10 -15 0 -31 -3 -35 -7 -17 -17 -75 -30 -87 -19 -9 8 -10 8 -5 -1 9 -16 -6
-17 -21 -2 -8 8 -13 7 -18 -2 -5 -8 -4 -10 3 -5 7 4 12 3 12 -2 0 -5 -9 -12
-20 -15 -11 -3 -20 -1 -20 5 0 5 -7 2 -16 -6 -8 -9 -20 -14 -25 -11 -5 4 -9 0
-9 -7 0 -9 -3 -9 -10 2 -8 12 -10 12 -10 1 0 -8 -3 -12 -6 -9 -3 4 -17 0 -32
-8 -20 -10 -28 -11 -34 -1 -5 7 -8 8 -8 1 0 -9 -50 -24 -130 -38 -14 -2 -38
-7 -54 -11 -18 -5 -27 -4 -23 2 3 5 0 10 -7 10 -9 0 -12 -7 -8 -16 5 -14 4
-14 -13 -1 -11 9 -16 10 -11 3 5 -9 0 -13 -16 -14 -13 0 -32 -2 -43 -4 -11 -2
-37 -6 -58 -8 -21 -3 -41 -8 -44 -11 -3 -3 -12 -1 -20 5 -10 9 -17 8 -28 -1
-10 -9 -15 -9 -15 -1 0 6 -5 11 -11 11 -5 0 -8 -4 -5 -9 8 -12 -37 -8 -46 4
-5 6 -8 4 -8 -5 0 -13 -1 -13 -10 0 -9 13 -11 13 -21 0 -9 -13 -10 -13 -6 0 3
10 15 14 36 13 17 -1 29 2 26 7 -3 4 3 7 12 6 10 -2 21 2 25 8 5 8 13 7 29 -2
11 -8 18 -9 15 -3 -10 15 33 24 50 10 12 -10 13 -9 8 7 -4 10 -4 16 0 13 4 -4
29 1 56 11 36 13 51 15 61 6 9 -8 10 -8 6 0 -4 7 2 14 13 17 25 7 33 -3 17
-22 -11 -14 -10 -14 5 -2 10 7 15 17 13 22 -6 9 30 31 38 23 3 -3 13 -1 24 5
10 5 59 24 108 41 50 17 104 37 120 45 17 7 53 22 80 33 28 11 100 44 160 73
61 29 115 52 122 52 7 0 10 4 8 8 -7 10 25 20 37 12 7 -4 8 -1 3 7 -6 10 -4
12 11 6 10 -4 15 -4 12 0 -4 3 -1 13 7 20 17 17 28 18 20 2 -4 -7 3 -2 14 11
12 13 27 21 35 18 10 -4 13 -1 9 9 -4 10 5 19 26 27 17 6 31 15 31 20 0 4 5 5
10 2 6 -3 10 -1 10 4 0 6 4 11 10 11 5 0 7 -8 3 -17 -3 -12 0 -10 11 5 10 12
21 20 26 17 4 -3 6 3 4 13 -4 11 6 26 28 42 18 14 36 24 41 22 4 -1 7 4 7 12
0 20 17 29 26 15 4 -7 3 -9 -3 -6 -5 3 -10 0 -10 -8 0 -11 4 -12 13 -4 7 6 11
19 9 30 -2 12 4 23 18 30 20 9 21 9 4 -4 -10 -9 -14 -18 -8 -21 5 -3 15 7 23
24 7 16 19 30 26 30 7 0 10 5 7 10 -3 6 1 13 9 16 9 3 16 12 16 19 0 7 7 18
15 25 48 40 215 301 215 337 0 5 -80 -14 -177 -43 -98 -30 -189 -55 -203 -58
-14 -2 -37 -7 -52 -10 -71 -15 -79 -16 -74 -7 4 5 -7 6 -27 1 -18 -4 -44 -6
-57 -5 -14 1 -29 0 -34 -3 -10 -6 -66 -13 -99 -13 -23 0 -17 -21 6 -25 9 -1
15 1 12 6 -2 4 9 6 25 5 16 -1 27 1 24 6 -3 5 -1 9 4 9 6 0 12 -6 15 -14 4 -9
0 -13 -11 -11 -9 1 -21 0 -27 -4 -14 -8 -35 -12 -72 -13 -18 -1 -30 -5 -28 -9
6 -9 -16 -6 -34 5 -11 7 -13 5 -9 -6 5 -11 -1 -14 -20 -13 -15 1 -30 -3 -34
-9 -5 -7 -8 -7 -8 2 0 6 -5 12 -11 12 -5 0 -8 -4 -5 -8 2 -4 -7 -9 -20 -10
-15 -1 -23 2 -19 8 4 6 11 8 16 5 5 -4 12 1 15 9 3 9 11 13 18 9 16 -11 37
-13 31 -3 -3 4 2 10 10 13 10 4 12 1 9 -11 -5 -14 -4 -15 5 -2 6 8 11 18 11
22 0 13 -39 4 -45 -10 -3 -8 -10 -10 -17 -5 -23 14 -37 12 -31 -5 5 -11 3 -13
-8 -6 -23 14 -42 14 -30 0 15 -18 -3 -40 -28 -33 -12 3 -21 2 -21 -2 0 -4 -15
-7 -32 -7 -18 0 -44 -4 -58 -8 -21 -7 -19 -3 10 18 19 14 73 37 120 51 47 15
119 37 160 50 55 18 77 21 87 13 10 -8 12 -7 8 3 -4 10 18 22 77 44 46 16 86
30 90 30 3 0 10 3 14 8 4 4 15 7 24 7 10 0 23 7 31 16 7 8 21 13 30 11 10 -3
20 2 23 10 4 8 13 13 21 9 8 -3 17 0 21 5 6 11 92 53 109 53 6 1 19 9 29 19
11 9 23 17 27 17 5 0 35 16 67 35 35 20 68 33 81 30 12 -2 19 0 16 6 -4 5 -11
7 -16 4 -5 -4 -9 -4 -9 -1 0 2 23 18 51 36 38 23 54 28 64 20 9 -8 15 -8 20 0
4 6 2 9 -3 8 -6 -2 -9 2 -8 7 0 6 7 9 13 9 7 -1 10 3 6 9 -4 6 0 8 11 4 9 -4
15 -3 11 2 -3 5 2 17 11 26 14 13 19 14 25 3 6 -9 9 -7 9 10 0 12 5 22 10 22
12 0 232 211 226 217 -2 3 -17 6 -33 8 -93 12 -142 18 -171 19 -18 0 -37 8
-42 16 -8 12 -10 11 -10 -5 0 -17 -2 -17 -10 -5 -5 8 -10 10 -10 4 0 -13 -48
-6 -69 10 -11 8 -13 8 -7 -1 5 -10 -3 -13 -29 -13 -26 0 -34 3 -29 13 6 9 4 9
-7 1 -24 -19 -110 -17 -125 3 -10 14 -12 15 -11 3 1 -8 -2 -15 -8 -15 -5 0 -9
2 -8 5 1 3 -7 6 -17 6 -10 0 -16 -5 -14 -11 3 -6 -5 -11 -16 -12 -13 -1 -18 2
-14 10 5 8 3 8 -7 0 -19 -18 -29 -16 -23 5 5 16 5 16 -6 -1 -6 -9 -15 -15 -20
-12 -5 3 -11 1 -15 -5 -4 -7 -13 -7 -26 1 -15 7 -24 7 -34 -1 -7 -6 -17 -10
-21 -9 -5 1 -12 0 -16 -1 -5 -1 -17 -4 -28 -5 -11 -1 -21 -3 -22 -5 -2 -1 -16
-3 -33 -5 -39 -3 -90 -13 -140 -26 -79 -21 -124 -31 -105 -23 8 4 80 36 160
71 80 36 153 65 162 66 9 1 15 4 12 8 -2 4 3 10 12 13 10 4 13 2 9 -7 -4 -6
-1 -5 7 3 14 17 68 45 81 42 4 -1 7 2 7 7 0 5 12 12 27 16 15 3 39 15 53 25
21 15 30 17 40 7 10 -9 11 -9 6 1 -4 6 -3 12 3 12 5 0 16 6 23 13 16 15 70 41
81 39 4 -1 7 2 7 7 0 5 10 13 23 17 12 4 39 18 59 30 43 27 58 30 58 10 0 -8
7 -17 16 -20 24 -9 31 -7 12 5 -10 5 -18 15 -18 21 0 7 5 6 15 -2 10 -9 15 -9
15 -1 0 6 -5 11 -11 11 -5 0 -7 6 -3 13 5 8 2 8 -9 -2 -11 -8 -17 -9 -17 -2 0
6 11 13 25 17 14 3 25 10 25 16 0 5 5 6 11 3 6 -4 17 2 25 13 9 14 21 19 31
15 11 -4 14 -3 9 5 -7 12 5 16 34 12 8 -1 12 2 7 6 -4 4 0 16 10 26 16 18 39
25 29 9 -3 -5 1 -12 10 -15 8 -3 12 -10 9 -16 -8 -14 -26 -13 -23 1 2 6 -3 14
-9 16 -7 3 -13 -2 -13 -10 0 -32 32 -27 81 12 39 31 46 41 35 50 -10 8 -16 8
-26 -4 -7 -8 -17 -12 -22 -9 -6 4 -5 -2 1 -14 8 -16 7 -21 -5 -26 -8 -3 -17 1
-20 9 -7 18 13 45 33 45 7 0 16 7 20 15 5 14 8 14 25 -1 18 -17 20 -16 49 15
17 19 28 39 25 46 -3 8 2 16 10 19 9 3 12 10 9 16 -3 5 0 7 7 5 8 -3 22 2 33
11 11 8 13 12 5 9 -8 -4 -2 5 13 21 34 36 124 149 137 174 8 15 6 20 -9 25
-16 5 -20 14 -18 48 1 29 -2 41 -10 39 -7 -1 -13 2 -13 8 0 5 5 10 11 10 5 0
-2 11 -17 25 -17 16 -31 22 -37 16 -5 -5 -16 -7 -25 -4 -10 4 -13 2 -8 -5 3
-6 2 -13 -3 -16 -5 -4 -12 -2 -15 3 -8 12 21 34 34 26 5 -3 10 -1 10 4 0 10
-24 15 -33 9 -2 -2 -11 3 -20 11 -12 9 -17 10 -17 2 0 -7 -5 -9 -12 -4 -16 9
-68 14 -68 6 0 -4 7 -14 15 -23 13 -14 11 -16 -20 -16 -31 0 -33 2 -20 16 8 9
15 19 15 23 0 7 -52 3 -67 -6 -6 -4 -14 -1 -16 5 -4 9 -6 9 -6 1 -1 -7 -12
-10 -29 -7 -24 4 -28 1 -28 -21 0 -14 4 -25 9 -25 5 0 7 6 4 14 -3 8 -3 17 0
20 8 8 33 -13 33 -28 0 -8 -2 -8 -8 0 -5 8 -12 5 -24 -10 -13 -18 -13 -23 -3
-23 8 0 13 5 12 10 -1 6 10 11 25 12 15 1 25 -1 23 -5 -2 -4 6 -6 20 -5 18 2
22 -1 18 -13 -4 -13 -1 -12 11 3 10 11 14 14 10 6 -5 -10 -3 -12 7 -7 8 4 6 1
-3 -7 -10 -8 -14 -18 -10 -23 4 -4 0 -4 -8 2 -8 6 -28 10 -43 9 -15 -1 -30 2
-33 6 -2 4 -16 6 -30 3 -21 -4 -25 -2 -20 14 4 13 0 18 -15 19 -16 2 -18 -1
-9 -12 7 -8 7 -15 1 -19 -5 -4 -12 -3 -14 1 -6 10 -280 9 -357 -1 -30 -4 -77
-9 -105 -12 -61 -6 -104 -13 -127 -20 -10 -3 -27 0 -39 6 -12 7 -19 8 -15 2 3
-6 -2 -9 -11 -8 -10 2 -21 -2 -25 -8 -4 -6 -10 -7 -15 -3 -10 10 18 28 32 20
5 -4 6 -2 2 3 -10 11 -117 14 -117 3 0 -4 -9 -6 -19 -4 -11 2 -25 -3 -31 -11
-7 -7 -17 -11 -24 -7 -22 14 -34 11 -29 -8 5 -17 15 -23 36 -20 4 0 7 -4 7
-10 0 -6 -7 -9 -15 -6 -8 4 -17 2 -20 -3 -3 -5 -14 -7 -25 -5 -11 2 -20 0 -20
-6 0 -5 -5 -9 -11 -9 -8 0 -8 5 1 15 7 8 16 13 20 10 4 -3 11 2 14 11 10 26 7
26 -24 4 -16 -12 -30 -19 -30 -16 0 8 63 65 72 66 4 0 31 22 59 49 33 32 57
47 67 43 11 -4 14 -1 9 11 -4 11 -2 14 9 10 8 -3 14 -1 12 5 -2 5 1 9 6 8 5 0
12 9 17 22 5 12 24 32 44 43 19 12 35 24 35 27 0 4 46 54 101 112 217 225 389
449 518 674 51 88 140 270 160 326 7 19 17 44 22 55 5 11 20 53 33 93 24 70
24 72 5 72 -81 0 -621 -140 -759 -197 -8 -3 -19 -7 -25 -8 -15 -4 -251 -100
-320 -130 -130 -57 -425 -214 -485 -259 -26 -18 23 26 75 69 27 22 52 39 57
37 4 -1 7 3 6 9 -2 6 3 14 11 17 9 3 11 0 6 -8 -5 -8 -4 -11 3 -6 6 4 9 13 6
21 -4 9 4 19 19 26 14 6 28 20 30 30 3 11 10 19 17 19 6 0 9 -4 6 -9 -3 -4 7
-6 22 -3 l27 6 -24 6 c-23 5 -24 7 -8 20 10 8 24 20 31 27 10 9 16 9 26 0 10
-10 10 -8 1 11 -10 18 -9 22 3 22 8 0 18 5 22 12 5 7 3 8 -7 3 -8 -5 -3 3 11
18 29 31 38 34 36 11 0 -9 5 -18 12 -20 7 -1 8 0 2 3 -5 2 -10 9 -10 14 0 6 5
7 10 4 17 -11 11 7 -7 21 -17 12 -17 13 -1 14 9 0 20 9 23 20 3 11 11 20 16
20 5 0 9 7 9 15 0 9 6 12 15 8 14 -5 14 -8 -1 -24 -10 -11 -12 -19 -6 -19 7 0
12 4 12 9 0 4 10 7 23 7 32 -3 40 4 26 20 -9 11 -9 18 -1 26 6 6 8 16 6 23 -5
12 23 14 43 2 14 -9 25 17 16 40 -4 9 -2 14 3 10 6 -3 16 -2 24 3 15 9 16 13
19 45 0 8 4 14 9 13 4 -2 8 2 10 7 2 6 13 20 24 33 12 12 18 22 15 22 -4 0 0
11 9 25 9 14 13 25 9 25 -4 0 -2 7 5 15 7 8 9 15 4 15 -5 0 -2 5 6 10 13 9 13
10 0 10 -12 1 -12 2 2 10 10 6 15 19 13 30 -2 11 1 20 7 20 5 0 8 6 5 14 -3 8
-3 17 1 21 9 9 10 55 1 49 -4 -2 -6 -13 -4 -24 2 -12 0 -18 -4 -15 -5 2 -8 -3
-7 -13 0 -9 -3 -18 -9 -19 -13 -4 -14 18 -1 36 6 7 11 20 12 29 2 8 9 19 16
23 7 5 10 9 6 9 -3 0 3 28 13 63 19 60 46 166 55 215 5 28 13 162 9 162 -1 0
-76 -55 -166 -122 -270 -202 -574 -400 -844 -549 -66 -36 -312 -159 -319 -159
-2 0 -37 -15 -78 -34 -40 -18 -89 -39 -108 -46 -19 -6 -44 -16 -55 -20 -11 -5
-56 -21 -100 -36 -81 -28 -319 -125 -365 -149 -14 -8 -92 -47 -175 -88 -154
-77 -486 -263 -600 -337 -13 -8 -45 -28 -72 -44 -66 -40 -414 -272 -490 -327
-33 -24 -71 -51 -83 -59 -12 -8 -28 -19 -34 -25 -25 -22 -177 -135 -182 -135
-2 0 13 24 34 53 131 177 304 501 385 717 45 120 87 281 112 430 11 66 14 305
4 375 -18 131 -76 305 -130 394 l-20 33 -45 -131 c-160 -472 -471 -1001 -799
-1360 -77 -85 -105 -114 -347 -363 -568 -587 -958 -963 -1193 -1153 -33 -26
-62 -51 -65 -55 -3 -4 -39 -31 -80 -60 -41 -30 -77 -57 -80 -60 -11 -12 -148
-99 -205 -130 -133 -73 -466 -290 -540 -352 -5 -5 -57 -45 -115 -89 -254 -195
-525 -458 -663 -643 -21 -27 -37 -44 -37 -38 0 6 4 13 9 16 16 10 72 139 96
221 31 109 37 151 40 290 3 146 -20 292 -69 438 -19 56 -32 104 -29 107 2 3
46 -17 96 -43 142 -74 244 -169 305 -284 15 -29 30 -53 34 -53 4 0 10 21 14
48 33 221 -42 440 -227 662 l-49 59 38 -5 c98 -14 228 -79 296 -149 47 -48 55
-45 44 18 -11 65 -42 145 -85 219 -40 68 -154 190 -222 238 -28 19 -50 38 -51
41 0 4 21 9 46 13 100 13 201 79 235 154 20 44 27 127 15 181 -8 36 -13 36
-32 -1 -22 -44 -69 -85 -112 -99 -74 -24 -226 11 -288 67 -48 43 -106 146
-260 459 -195 395 -199 401 -330 600 -258 391 -580 640 -954 736 -66 17 -98
32 -145 67 -172 129 -353 144 -562 45 l-53 -24 -87 16 c-427 78 -688 237 -781
475 -22 56 -41 156 -38 199 2 40 -20 35 -75 -20z m10514 -705 c-17 -13 -17
-14 2 -8 16 5 17 4 5 -5 -8 -6 -16 -19 -16 -31 -1 -11 -2 -22 -3 -25 0 -3 -1
-8 -2 -12 -1 -5 -6 -17 -12 -28 -6 -11 -11 -23 -12 -26 0 -3 -8 -13 -18 -23
-9 -10 -14 -22 -11 -28 4 -7 2 -8 -4 -4 -14 8 -36 -30 -26 -46 4 -7 3 -8 -4
-4 -7 4 -12 1 -12 -6 0 -9 -3 -9 -10 2 -12 18 -13 31 -2 28 4 -2 8 0 10 5 2 7
-5 7 -26 0 -10 -4 -10 -9 -1 -20 9 -11 9 -17 -1 -26 -10 -9 -11 -9 -6 0 5 9 2
11 -8 7 -16 -6 -23 -25 -8 -23 17 3 32 -2 32 -10 0 -5 -11 -8 -25 -8 -31 0
-37 26 -11 50 10 9 16 17 12 17 -4 0 12 25 34 55 22 30 41 58 41 62 1 5 6 7
11 5 6 -2 8 4 5 13 -4 8 -2 15 4 15 6 0 8 4 5 8 -2 4 -1 14 5 22 6 10 9 11 9
3 0 -7 4 -13 9 -13 5 0 8 8 7 18 -5 27 15 61 31 55 11 -4 10 -8 -4 -19z m-198
-301 c-2 -19 -8 -28 -20 -26 -14 1 -14 -2 4 -21 20 -21 20 -22 1 -22 -10 0
-17 2 -15 5 3 2 0 10 -6 17 -8 9 -4 21 12 43 13 17 24 31 25 31 2 0 1 -12 -1
-27z m1038 -1365 c-18 -20 -18 -20 30 -22 43 -3 51 3 32 23 -14 17 -14 18 7
17 13 -1 28 -4 33 -7 6 -3 21 -4 35 -3 l24 1 -21 -16 c-19 -16 -19 -18 -4 -28
12 -8 23 -6 42 8 25 17 28 17 40 3 8 -9 14 -24 14 -33 0 -9 5 -15 11 -14 12 2
13 -35 0 -55 -5 -9 -11 -10 -20 -3 -7 6 -16 8 -19 4 -4 -3 -7 -1 -7 6 0 7 -6
11 -13 8 -19 -7 -41 8 -32 23 4 6 13 9 21 6 22 -8 16 0 -12 19 -15 9 -23 11
-19 4 6 -8 4 -10 -5 -4 -9 6 -11 4 -5 -6 7 -12 5 -12 -6 -1 -12 11 -12 14 1
22 9 6 10 10 3 10 -6 0 -15 -5 -18 -10 -8 -13 14 -42 26 -34 5 3 6 -2 2 -11
-5 -13 -7 -14 -14 -3 -7 10 -9 10 -9 -2 0 -10 -3 -11 -8 -4 -4 6 -15 10 -24 9
-11 -2 -15 2 -11 13 5 11 3 13 -8 6 -21 -12 -49 -15 -49 -5 0 6 5 13 11 17 15
9 -6 29 -31 30 -39 3 -42 4 -36 22 6 16 5 16 -7 0 -12 -15 -14 -15 -25 2 -10
16 -9 18 8 15 11 -2 22 0 24 4 3 4 16 7 30 7 24 0 24 -1 9 -18z m-874 -100
c-5 -10 -13 -17 -17 -17 -4 1 -10 0 -14 -1 -5 -1 -17 -4 -28 -5 -11 -1 -21 -3
-22 -5 -2 -1 -11 -3 -20 -5 -25 -5 -32 12 -14 31 12 12 16 12 16 2 0 -10 3 -9
10 2 9 13 10 13 10 0 1 -13 2 -13 10 0 5 10 23 16 44 16 30 0 33 -3 25 -18z
m-139 -18 c0 -5 -2 -10 -4 -10 -3 0 -8 5 -11 10 -3 6 -1 10 4 10 6 0 11 -4 11
-10z m-107 -45 c4 -8 1 -17 -6 -21 -7 -4 -9 -4 -5 1 4 4 3 14 -3 22 -7 8 -8
13 -1 13 5 0 12 -7 15 -15z m1180 -290 c-5 -14 -17 -19 -37 -16 -5 1 -6 -5 -3
-14 6 -15 -8 -21 -17 -7 -7 12 10 35 22 28 5 -3 12 4 15 15 3 12 10 18 16 15
6 -4 8 -13 4 -21z m-83 -80 c-7 -9 -15 -13 -18 -10 -3 2 1 11 8 20 7 9 15 13
18 10 3 -2 -1 -11 -8 -20z m-903 -1196 c-16 -4 -36 -5 -44 -2 -10 4 -14 2 -10
-4 6 -10 -4 -11 -31 -4 -2 1 -1 4 1 9 3 4 29 8 59 8 42 1 47 0 25 -7z m-542
-69 c-3 -5 -12 -10 -18 -10 -7 0 -6 4 3 10 19 12 23 12 15 0z m-62 -25 c-3 -9
-8 -14 -10 -11 -3 3 -2 9 2 15 9 16 15 13 8 -4z m18 -8 c-10 -9 -11 -8 -5 6 3
10 9 15 12 12 3 -3 0 -11 -7 -18z m679 -331 c0 -3 -4 -8 -10 -11 -5 -3 -10 -1
-10 4 0 6 5 11 10 11 6 0 10 -2 10 -4z m-7428 -223 c3 -48 5 -50 25 -25 15 17
9 6 -61 -108 -71 -116 -145 -297 -161 -392 -3 -18 -8 -40 -10 -48 -2 -8 -7
-42 -11 -75 -3 -33 -8 -63 -11 -68 -8 -13 -89 51 -146 115 -54 60 -125 186
-145 258 -5 19 -13 42 -16 50 -5 12 4 19 31 29 254 90 436 263 460 436 l7 50
18 -90 c10 -49 19 -109 20 -132z m-524 -177 c-14 -22 -27 -31 -32 -26 -6 6 1
19 18 35 37 34 40 32 14 -9z m6642 -134 c0 -5 -7 -9 -15 -9 -8 0 -12 4 -9 9 3
4 9 8 15 8 5 0 9 -4 9 -8z m662 -640 c-4 -12 -1 -12 19 2 23 14 63 15 78 1 3
-4 -7 -4 -23 -1 -17 3 -38 -1 -52 -11 -22 -14 -24 -14 -30 1 -3 9 -11 13 -17
9 -5 -3 -7 -2 -4 4 10 16 36 11 29 -5z m-258 0 c3 -5 -1 -9 -9 -9 -8 0 -12 4
-9 9 3 4 7 8 9 8 2 0 6 -4 9 -8z m-84 -32 c-29 -23 -40 -25 -40 -8 0 6 3 8 6
5 4 -3 16 0 28 8 30 22 35 18 6 -5z m320 12 c0 -5 -7 -9 -15 -9 -8 0 -12 4 -9
9 3 4 9 8 15 8 5 0 9 -4 9 -8z m-280 -33 c0 -6 -4 -7 -10 -4 -5 3 -10 11 -10
16 0 6 5 7 10 4 6 -3 10 -11 10 -16z m-125 1 c3 -6 -1 -7 -9 -4 -18 7 -21 14
-7 14 6 0 13 -4 16 -10z m781 -347 c-25 -25 -49 -43 -53 -40 -3 4 -1 7 6 7 7
0 9 5 5 12 -4 6 -3 9 2 5 5 -3 23 10 39 29 16 19 34 34 38 34 5 0 -12 -21 -37
-47z m-1801 -763 c3 -5 1 -10 -4 -10 -6 0 -11 5 -11 10 0 6 2 10 4 10 3 0 8
-4 11 -10z m55 -10 c-13 -8 -13 -10 -1 -10 8 0 12 -3 8 -6 -3 -3 -11 -3 -17 1
-8 5 -8 11 1 21 6 8 14 12 18 9 3 -3 -1 -10 -9 -15z m203 -733 c4 3 7 2 7 -4
0 -22 -27 -30 -92 -29 -36 1 -69 4 -73 8 -4 3 1 5 12 4 10 -2 23 1 30 6 7 5
18 6 25 2 18 -11 48 -12 42 -2 -4 5 -12 7 -20 4 -8 -3 -14 -1 -14 5 0 7 10 9
25 5 16 -4 25 -2 25 5 0 8 4 9 13 0 8 -6 17 -8 20 -4z m53 -12 c0 -14 -7 -25
-14 -25 -8 0 -10 5 -6 13 5 8 2 7 -9 -2 -10 -8 -20 -11 -23 -9 -4 5 42 48 51
48 2 0 2 -11 1 -25z m-1089 -698 c1 -11 1 -18 0 -16 -2 2 -8 11 -15 20 -9 12
-9 16 1 16 7 0 14 -9 14 -20z m-97 -7 c0 -5 -5 -10 -11 -10 -5 0 -7 5 -4 10 3
6 8 10 11 10 2 0 4 -4 4 -10z m-65 -32 c-9 -6 -19 -7 -22 -4 -4 3 -1 6 6 6 7
0 9 4 6 10 -4 6 1 7 11 3 15 -6 15 -7 -1 -15z m70 6 c-11 -8 -28 -21 -37 -29
-10 -8 -18 -11 -18 -7 0 10 20 39 20 29 0 -5 10 -1 22 7 29 20 40 20 13 0z
m28 -6 c-5 -7 -9 -24 -8 -38 1 -23 -3 -25 -41 -25 -23 0 -40 3 -38 7 3 4 18 6
35 4 19 -2 28 1 26 8 -2 6 -13 9 -23 8 -12 -2 -6 6 16 21 41 29 46 32 33 15z
m-133 -2 c0 -3 -4 -8 -10 -11 -5 -3 -10 -1 -10 4 0 6 5 11 10 11 6 0 10 -2 10
-4z m156 -30 c-1 -19 -4 -37 -7 -40 -5 -5 -5 63 0 72 6 10 9 -4 7 -32z m-251
3 c-5 -15 -4 -19 4 -15 6 4 11 2 11 -3 0 -19 -19 -12 -31 10 -8 15 -8 19 0 15
6 -4 11 -2 11 3 0 6 3 11 6 11 3 0 2 -10 -1 -21z m94 1 c6 8 12 12 15 10 2 -3
-2 -14 -10 -24 -14 -20 -14 -20 -29 0 -8 10 -15 23 -15 28 0 6 7 1 15 -10 12
-16 16 -17 24 -4z m-148 -17 c-12 -20 -14 -14 -5 12 4 9 9 14 11 11 3 -2 0
-13 -6 -23z m119 -7 c0 -1 -9 -2 -20 -2 -10 0 -17 2 -15 5 3 2 -1 11 -8 19 -9
11 -4 11 16 -2 15 -10 27 -19 27 -20z m70 19 c0 -8 -4 -15 -10 -15 -5 0 -7 7
-4 15 4 8 8 15 10 15 2 0 4 -7 4 -15z m-240 -16 c0 -5 -4 -9 -8 -9 -5 0 -9 7
-9 15 0 8 4 12 9 9 4 -3 8 -9 8 -15z m80 1 c0 -5 -5 -10 -11 -10 -5 0 -7 5 -4
10 3 6 8 10 11 10 2 0 4 -4 4 -10z m-2365 -809 c-4 -10 2 -8 16 5 12 10 19 13
15 7 -4 -8 -2 -13 4 -13 7 0 10 -6 7 -13 -3 -8 3 -13 18 -13 13 0 21 4 19 8
-3 5 -10 6 -15 3 -5 -4 -9 -1 -9 4 0 6 7 11 15 11 8 0 15 -5 15 -11 0 -5 6 -7
13 -3 7 5 6 0 -3 -11 -16 -20 -17 -20 35 1 8 3 15 1 15 -5 0 -6 7 -8 15 -5 8
4 17 -1 21 -10 5 -12 10 -14 19 -6 9 7 15 8 19 1 4 -6 14 -7 24 -4 9 3 14 3
10 -2 -14 -15 -68 -13 -78 4 -7 13 -11 14 -21 4 -18 -17 -32 -16 -26 1 4 10 1
13 -8 9 -8 -3 -13 -8 -10 -12 2 -4 -2 -8 -10 -8 -8 0 -17 7 -20 15 -4 12 -8
12 -22 1 -20 -17 -17 -18 -41 4 -12 11 -25 16 -30 13 -5 -3 -8 6 -6 19 1 14
-2 25 -7 25 -5 0 -9 5 -9 10 0 6 8 5 20 -2 11 -7 18 -19 15 -27z m-494 -608
c12 -16 12 -17 -2 -6 -9 7 -20 9 -24 5 -5 -4 -5 -1 -1 6 9 16 11 15 27 -5z
m1939 -5 c0 8 27 10 38 2 1 -2 6 -3 11 -4 5 0 12 -4 15 -7 3 -3 -13 -5 -37 -4
-23 1 -46 0 -52 -3 -18 -11 -55 -11 -55 0 0 7 -5 6 -14 -2 -16 -13 -75 -20
-91 -11 -17 9 -35 10 -40 1 -3 -5 4 -7 15 -5 11 2 20 -1 20 -7 0 -5 -7 -8 -15
-4 -8 3 -15 0 -15 -7 0 -7 -5 -4 -11 6 -6 9 -14 15 -19 12 -5 -3 -11 -1 -14 4
-4 5 -1 13 6 18 21 12 70 10 75 -4 8 -19 23 -5 17 15 -5 14 -4 15 5 2 9 -13
11 -13 11 -1 0 11 4 9 15 -5 9 -11 14 -13 13 -5 -3 16 49 24 58 9 6 -10 24
-11 23 0 -4 21 3 23 21 7 11 -10 20 -13 20 -7z m-350 -38 c-6 -11 -13 -20 -16
-20 -2 0 0 9 6 20 6 11 13 20 16 20 2 0 0 -9 -6 -20z"/>
<path d="M14265 13990 c3 -20 -14 -42 -28 -33 -5 3 -7 1 -3 -5 3 -6 2 -13 -3
-17 -6 -3 -7 -13 -4 -22 4 -10 2 -14 -4 -10 -6 4 -17 -1 -24 -10 -10 -12 -10
-14 -1 -9 7 4 12 2 12 -6 0 -7 11 0 24 17 13 16 21 35 19 43 -3 7 0 12 8 10 7
-2 13 6 13 17 0 11 7 25 14 30 11 9 9 11 -6 11 -12 0 -19 -6 -17 -16z"/>
<path d="M15124 12394 c1 -8 4 -15 7 -16 2 -2 3 -1 2 1 -2 2 2 9 7 16 7 8 5
12 -4 12 -8 0 -13 -6 -12 -13z"/>
<path d="M15230 12396 c13 -17 -7 -35 -34 -30 -14 2 -16 0 -8 -8 8 -8 8 -15 1
-24 -7 -9 -6 -12 5 -10 9 1 18 5 22 8 8 9 35 -2 29 -11 -2 -4 2 -8 10 -8 11 0
12 4 4 14 -9 9 -8 17 1 28 7 8 9 15 4 15 -5 0 0 8 11 17 14 11 15 14 3 10 -9
-3 -19 -3 -22 1 -4 3 -13 7 -22 8 -11 2 -12 -1 -4 -10z m26 -21 c1 -8 -4 -19
-12 -26 -8 -6 -14 -8 -14 -4 0 4 -6 2 -13 -4 -10 -8 -14 -7 -14 4 0 8 3 13 5
10 9 -9 42 27 35 39 -3 6 -2 7 2 3 5 -4 10 -14 11 -22z"/>
<path d="M15347 12373 c-4 -3 -1 -13 6 -21 10 -13 9 -14 -10 -4 -16 9 -24 9
-29 0 -4 -6 -3 -8 3 -5 10 6 25 -14 27 -35 1 -10 46 -41 47 -34 5 23 4 33 -9
48 -8 9 -11 21 -8 26 7 12 -18 35 -27 25z m39 -76 c2 -13 -1 -14 -17 -4 -11 7
-14 14 -9 15 6 2 3 11 -7 19 -16 14 -16 14 6 1 13 -8 25 -22 27 -31z"/>
<path d="M15315 12300 c3 -5 8 -10 11 -10 2 0 4 5 4 10 0 6 -5 10 -11 10 -5 0
-7 -4 -4 -10z"/>
<path d="M14218 12298 c-5 -11 -2 -15 10 -14 9 2 18 9 20 17 3 12 2 12 -6 0
-8 -11 -10 -11 -14 0 -3 10 -6 9 -10 -3z"/>
<path d="M14165 12279 c-3 -4 2 -6 10 -5 21 3 28 13 10 13 -9 0 -18 -4 -20 -8z"/>
<path d="M8776 5542 c-3 -5 1 -15 8 -21 11 -10 14 -9 12 3 -3 21 -13 29 -20
18z"/>
<path d="M10173 4935 c0 -8 4 -12 9 -9 5 3 6 10 3 15 -9 13 -12 11 -12 -6z"/>
<path d="M10096 4928 c3 -5 10 -6 15 -3 13 9 11 12 -6 12 -8 0 -12 -4 -9 -9z"/>
<path d="M9955 4919 c-3 -4 2 -6 10 -5 21 3 28 13 10 13 -9 0 -18 -4 -20 -8z"/>
<path d="M10056 4922 c-3 -5 1 -9 9 -9 8 0 12 4 9 9 -3 4 -7 8 -9 8 -2 0 -6
-4 -9 -8z"/>
<path d="M14136 13734 c-10 -25 1 -29 14 -5 6 12 7 21 1 21 -5 0 -12 -7 -15
-16z"/>
<path d="M14033 13649 c-2 -23 3 -25 10 -4 4 8 3 16 -1 19 -4 3 -9 -4 -9 -15z"/>
<path d="M13970 13580 c0 -5 5 -10 10 -10 6 0 10 5 10 10 0 6 -4 10 -10 10 -5
0 -10 -4 -10 -10z"/>
<path d="M13955 13550 c3 -5 8 -10 11 -10 2 0 4 5 4 10 0 6 -5 10 -11 10 -5 0
-7 -4 -4 -10z"/>
<path d="M14305 12480 c-3 -6 1 -7 9 -4 18 7 21 14 7 14 -6 0 -13 -4 -16 -10z"/>
<path d="M14934 12401 c-5 -5 -26 -10 -64 -16 -14 -1 -25 -4 -25 -5 0 -4 -43
-12 -67 -12 -16 0 -28 -3 -28 -7 0 -4 51 -6 113 -6 65 1 118 -3 127 -9 13 -9
13 -9 2 6 -8 10 -9 18 -3 22 18 12 0 34 -25 32 -14 0 -28 -3 -30 -5z m56 -10
c2 -1 -2 -7 -8 -13 -13 -13 -144 -19 -136 -7 2 4 17 5 34 4 17 -1 30 2 30 9 0
7 4 6 9 -2 7 -11 9 -11 14 1 4 11 23 14 57 8z"/>
<path d="M15000 12403 c1 -18 18 -35 24 -24 4 6 2 11 -4 11 -6 0 -8 5 -5 10 3
6 1 10 -4 10 -6 0 -11 -3 -11 -7z"/>
<path d="M15176 12402 c-3 -5 1 -9 9 -9 8 0 12 4 9 9 -3 4 -7 8 -9 8 -2 0 -6
-4 -9 -8z"/>
<path d="M14205 12389 c-11 -16 -1 -19 13 -3 7 8 8 14 3 14 -5 0 -13 -5 -16
-11z"/>
<path d="M15069 12347 c14 -14 61 -17 61 -4 0 5 -6 7 -14 4 -8 -3 -17 -3 -20
1 -4 3 -14 7 -23 8 -12 2 -13 0 -4 -9z"/>
<path d="M15245 11979 c-4 -6 -5 -12 -2 -15 2 -3 7 2 10 11 7 17 1 20 -8 4z"/>
<path d="M15003 11793 c-7 -2 -13 -9 -13 -15 0 -6 7 -5 16 3 13 10 17 10 24 0
4 -8 10 -9 14 -3 4 8 -18 25 -27 21 -1 0 -8 -3 -14 -6z"/>
<path d="M14944 11779 c-4 -7 -3 -9 4 -5 6 3 15 -2 21 -11 6 -10 11 -13 11 -7
0 20 -27 37 -36 23z"/>
<path d="M14942 11753 c-6 -2 -10 -9 -6 -14 3 -5 -2 -9 -11 -9 -9 0 -13 4 -10
10 3 6 -1 7 -9 4 -22 -8 -20 -10 16 -23 17 -6 29 -8 25 -5 -3 4 -2 15 4 25 5
11 8 19 7 18 -2 0 -9 -3 -16 -6z"/>
<path d="M14817 11673 c-10 -10 -8 -23 4 -23 5 0 8 4 4 9 -3 5 5 12 17 14 21
4 21 4 2 6 -11 0 -24 -2 -27 -6z"/>
<path d="M14770 11660 c0 -5 5 -10 10 -10 6 0 10 5 10 10 0 6 -4 10 -10 10 -5
0 -10 -4 -10 -10z"/>
<path d="M14730 11643 c5 -2 8 -9 5 -13 -3 -5 -1 -11 4 -14 5 -4 8 2 7 11 -2
9 -8 18 -15 19 -6 1 -7 0 -1 -3z"/>
<path d="M14761 11624 c0 -11 3 -14 6 -6 3 7 2 16 -1 19 -3 4 -6 -2 -5 -13z"/>
<path d="M14710 11621 c0 -6 4 -13 10 -16 6 -3 7 1 4 9 -7 18 -14 21 -14 7z"/>
<path d="M14661 11616 c2 -2 15 -9 29 -15 24 -11 24 -11 6 3 -16 13 -49 24
-35 12z"/>
<path d="M14630 11582 c0 -5 7 -9 15 -9 8 0 12 4 9 9 -3 4 -9 8 -15 8 -5 0 -9
-4 -9 -8z"/>
<path d="M14515 11531 c-3 -5 -2 -12 3 -15 5 -3 9 1 9 9 0 17 -3 19 -12 6z"/>
<path d="M14697 11429 c7 -7 15 -10 18 -7 3 3 -2 9 -12 12 -14 6 -15 5 -6 -5z"/>
<path d="M14755 11430 c-3 -6 1 -7 9 -4 18 7 21 14 7 14 -6 0 -13 -4 -16 -10z"/>
<path d="M14837 11429 c7 -7 15 -10 18 -7 3 3 -2 9 -12 12 -14 6 -15 5 -6 -5z"/>
<path d="M14779 11013 c-12 -16 -12 -17 2 -6 9 7 19 10 22 6 4 -3 7 -1 7 5 0
17 -16 15 -31 -5z"/>
<path d="M14753 10975 c0 -8 4 -12 9 -9 4 3 8 9 8 15 0 5 -4 9 -8 9 -5 0 -9
-7 -9 -15z"/>
<path d="M14693 10945 c0 -8 4 -12 9 -9 5 3 6 10 3 15 -9 13 -12 11 -12 -6z"/>
<path d="M14575 10909 c-4 -6 -5 -12 -2 -15 2 -3 7 2 10 11 7 17 1 20 -8 4z"/>
<path d="M14416 10835 c-9 -26 -7 -32 5 -12 6 10 9 21 6 23 -2 3 -7 -2 -11
-11z"/>
<path d="M14010 10661 c0 -7 -10 -10 -24 -7 -23 4 -24 3 -17 -33 1 -2 7 1 14
8 8 6 24 9 36 6 20 -4 21 -2 10 13 -7 9 -15 19 -16 21 -2 2 -3 -1 -3 -8z"/>
<path d="M13780 10610 c-7 -4 -18 -6 -25 -4 -6 3 -18 -3 -26 -12 -13 -16 -12
-16 6 -7 11 6 32 8 48 6 15 -2 27 1 27 6 0 15 -14 21 -30 11z"/>
<path d="M14367 10274 c-17 -15 -23 -24 -14 -24 8 0 18 7 21 16 3 8 10 13 15
9 5 -3 12 -1 15 4 13 21 -11 18 -37 -5z"/>
<path d="M14219 10170 c-8 -6 -8 -9 0 -14 6 -4 11 -2 11 4 0 6 4 9 9 5 5 -3
12 -2 15 3 6 10 -19 11 -35 2z"/>
<path d="M13881 9893 c-1 -17 16 -25 25 -12 4 7 3 9 -4 5 -5 -3 -13 0 -15 6
-4 9 -6 10 -6 1z"/>
<path d="M13855 9880 c3 -5 8 -10 11 -10 2 0 4 5 4 10 0 6 -5 10 -11 10 -5 0
-7 -4 -4 -10z"/>
<path d="M13740 9863 c14 -22 30 -22 30 -1 0 6 -3 8 -7 5 -3 -4 -13 -1 -21 6
-13 11 -14 9 -2 -10z"/>
<path d="M13810 9870 c-9 -6 -10 -10 -3 -10 6 0 15 5 18 10 8 12 4 12 -15 0z"/>
<path d="M13695 9860 c-3 -5 -1 -10 4 -10 6 0 11 5 11 10 0 6 -2 10 -4 10 -3
0 -8 -4 -11 -10z"/>
<path d="M13836 9853 c-6 -14 -5 -15 5 -6 7 7 10 15 7 18 -3 3 -9 -2 -12 -12z"/>
<path d="M13643 9835 c-3 -9 -3 -18 -1 -21 3 -3 8 4 11 16 6 23 -1 27 -10 5z"/>
<path d="M13560 9812 c-18 -14 -19 -19 -7 -19 9 0 13 5 10 10 -4 6 0 8 9 5 9
-4 15 0 15 8 0 18 0 18 -27 -4z"/>
<path d="M13468 9803 c6 -3 10 -9 6 -14 -8 -14 2 -11 14 4 8 10 6 13 -11 14
-12 0 -16 -1 -9 -4z"/>
<path d="M13430 9786 c0 -2 7 -7 16 -10 8 -3 12 -2 9 4 -6 10 -25 14 -25 6z"/>
<path d="M13310 9770 c-9 -6 -10 -10 -3 -10 6 0 15 5 18 10 8 12 4 12 -15 0z"/>
<path d="M13329 9743 c-13 -16 -12 -17 4 -4 9 7 17 15 17 17 0 8 -8 3 -21 -13z"/>
<path d="M13180 9736 c0 -2 7 -7 16 -10 8 -3 12 -2 9 4 -6 10 -25 14 -25 6z"/>
<path d="M13130 9720 c0 -5 5 -10 11 -10 5 0 7 5 4 10 -3 6 -8 10 -11 10 -2 0
-4 -4 -4 -10z"/>
<path d="M14261 9694 c0 -11 3 -14 6 -6 3 7 2 16 -1 19 -3 4 -6 -2 -5 -13z"/>
<path d="M14291 9694 c0 -11 3 -14 6 -6 3 7 2 16 -1 19 -3 4 -6 -2 -5 -13z"/>
<path d="M14255 9660 c-3 -5 -1 -10 4 -10 6 0 11 5 11 10 0 6 -2 10 -4 10 -3
0 -8 -4 -11 -10z"/>
<path d="M14190 9560 c0 -5 5 -10 11 -10 5 0 7 5 4 10 -3 6 -8 10 -11 10 -2 0
-4 -4 -4 -10z"/>
<path d="M13470 9060 c0 -5 6 -10 14 -10 8 0 17 -7 20 -16 3 -8 10 -13 16 -9
5 3 1 14 -10 25 -22 22 -40 26 -40 10z"/>
<path d="M12490 7902 c0 -5 7 -9 15 -9 8 0 12 4 9 9 -3 4 -9 8 -15 8 -5 0 -9
-4 -9 -8z"/>
<path d="M12268 6813 c7 -3 16 -2 19 1 4 3 -2 6 -13 5 -11 0 -14 -3 -6 -6z"/>
<path d="M12232 6790 c-7 -12 -8 -20 -2 -20 5 0 10 5 10 11 0 5 4 7 10 4 6 -3
7 1 4 9 -8 20 -7 20 -22 -4z"/>
<path d="M12196 6782 c-2 -4 -1 -14 4 -22 7 -11 9 -9 7 8 -1 24 -3 26 -11 14z"/>
<path d="M12176 6745 c-3 -8 -1 -15 4 -15 6 0 10 7 10 15 0 8 -2 15 -4 15 -2
0 -6 -7 -10 -15z"/>
<path d="M12114 6728 c3 -15 26 -23 26 -8 0 6 -4 9 -9 6 -5 -4 -12 -1 -14 4
-3 6 -4 5 -3 -2z"/>
<path d="M12090 6706 c0 -2 7 -7 16 -10 8 -3 12 -2 9 4 -6 10 -25 14 -25 6z"/>
<path d="M12055 6681 c-3 -5 0 -13 6 -17 7 -4 9 -3 5 4 -3 6 3 12 16 15 23 4
23 4 1 6 -12 0 -24 -3 -28 -8z"/>
<path d="M12018 6652 c4 -10 7 -12 10 -4 2 7 9 9 15 5 7 -3 8 -2 4 2 -14 16
-36 14 -29 -3z"/>
<path d="M11990 6641 c0 -6 4 -12 8 -15 5 -3 9 1 9 9 0 8 -4 15 -9 15 -4 0 -8
-4 -8 -9z"/>
<path d="M11971 6624 c0 -11 3 -14 6 -6 3 7 2 16 -1 19 -3 4 -6 -2 -5 -13z"/>
<path d="M11874 6615 c-4 -8 -11 -12 -17 -8 -6 4 -7 1 -2 -7 6 -10 11 -10 20
3 7 9 16 13 20 9 5 -4 5 -1 1 6 -9 16 -15 15 -22 -3z"/>
<path d="M11915 6609 c-4 -6 -5 -12 -2 -15 2 -3 7 2 10 11 7 17 1 20 -8 4z"/>
<path d="M11791 6563 c3 -18 -2 -27 -9 -16 -5 9 -12 6 -21 -10 -13 -19 -12
-21 1 -10 8 7 17 11 20 8 3 -3 11 1 17 9 8 10 9 16 1 21 -6 4 -10 3 -9 -2z"/>
<path d="M11716 6547 c3 -10 9 -15 12 -12 3 3 0 11 -7 18 -10 9 -11 8 -5 -6z"/>
<path d="M11626 6522 c-3 -5 1 -9 9 -9 8 0 12 4 9 9 -3 4 -7 8 -9 8 -2 0 -6
-4 -9 -8z"/>
<path d="M11596 6507 c3 -10 9 -15 12 -12 3 3 0 11 -7 18 -10 9 -11 8 -5 -6z"/>
<path d="M11455 6410 c-4 -6 -2 -17 4 -24 6 -7 8 -16 4 -19 -3 -4 -3 -7 0 -7
3 0 11 10 18 21 8 15 8 19 0 15 -6 -4 -11 -3 -11 3 0 5 6 12 13 14 7 3 6 6 -5
6 -9 1 -20 -4 -23 -9z"/>
<path d="M11433 6370 c-1 -11 2 -20 7 -20 10 0 20 26 13 34 -12 11 -19 6 -20
-14z"/>
<path d="M10810 5939 c0 -5 -4 -7 -10 -4 -5 3 -10 1 -10 -4 0 -16 16 -13 30 4
9 10 9 15 1 15 -6 0 -11 -5 -11 -11z"/>
<path d="M10735 5920 c-4 -6 -11 -7 -17 -4 -7 4 -8 2 -4 -4 7 -12 36 -5 36 9
0 12 -7 11 -15 -1z"/>
<path d="M10660 5900 c0 -5 5 -10 11 -10 5 0 7 5 4 10 -3 6 -8 10 -11 10 -2 0
-4 -4 -4 -10z"/>
<path d="M10536 5874 c-5 -13 -4 -14 7 -6 8 7 18 8 22 4 5 -4 5 -1 1 6 -10 17
-23 15 -30 -4z"/>
<path d="M10470 5869 c0 -5 -5 -7 -12 -3 -7 4 -8 3 -4 -4 4 -6 13 -9 21 -5 17
6 20 23 5 23 -5 0 -10 -5 -10 -11z"/>
<path d="M10415 5860 c3 -5 8 -10 11 -10 2 0 4 5 4 10 0 6 -5 10 -11 10 -5 0
-7 -4 -4 -10z"/>
<path d="M10315 5851 c-3 -5 -2 -12 3 -15 5 -3 9 1 9 9 0 17 -3 19 -12 6z"/>
<path d="M8590 5620 c5 -10 16 -22 23 -26 9 -6 9 -5 0 8 -7 8 -10 17 -7 20 2
3 -2 8 -11 12 -13 4 -14 2 -5 -14z"/>
<path d="M8680 5583 c0 -7 -9 -10 -21 -8 -17 4 -19 2 -8 -11 6 -8 14 -12 17
-9 3 3 11 0 17 -5 17 -14 37 11 25 30 -9 13 -10 13 -10 0 0 -13 -1 -13 -10 0
-6 9 -10 10 -10 3z m30 -19 c0 -8 -19 -13 -24 -6 -3 5 1 9 9 9 8 0 15 -2 15
-3z"/>
<path d="M8715 5540 c-3 -5 -1 -10 4 -10 6 0 11 5 11 10 0 6 -2 10 -4 10 -3 0
-8 -4 -11 -10z"/>
<path d="M8354 4927 c-4 -7 -4 -9 1 -5 4 4 14 3 22 -3 8 -7 13 -8 13 -1 0 15
-28 23 -36 9z"/>
<path d="M8470 4900 c0 -5 5 -10 11 -10 5 0 7 5 4 10 -3 6 -8 10 -11 10 -2 0
-4 -4 -4 -10z"/>
<path d="M9900 4880 c-9 -6 -10 -10 -3 -10 6 0 15 5 18 10 8 12 4 12 -15 0z"/>
<path d="M9575 4861 c-3 -6 4 -15 16 -21 15 -8 19 -9 15 -1 -4 6 -2 11 3 11 6
0 11 5 11 12 0 9 -3 9 -12 0 -15 -15 -32 -16 -23 -2 3 6 4 10 1 10 -3 0 -7 -4
-11 -9z"/>
<path d="M9523 4843 c9 -2 14 -9 11 -15 -4 -7 -2 -8 5 -4 15 10 4 26 -17 25
-15 -1 -15 -2 1 -6z"/>
<path d="M9630 4841 c0 -5 7 -11 14 -14 10 -4 13 -1 9 9 -6 15 -23 19 -23 5z"/>
<path d="M9426 4818 c3 -5 10 -6 15 -3 13 9 11 12 -6 12 -8 0 -12 -4 -9 -9z"/>
<path d="M9490 4826 c0 -2 7 -7 16 -10 8 -3 12 -2 9 4 -6 10 -25 14 -25 6z"/>
</g>
</svg>
